<?xml version="1.0" encoding="UTF-8" standalone="no"?>
<!DOCTYPE svg PUBLIC "-//W3C//DTD SVG 1.1//EN"
 "http://www.w3.org/Graphics/SVG/1.1/DTD/svg11.dtd">
<!-- Generated by graphviz version 2.40.1 (20161225.0304)
 -->
<!-- Title: G Pages: 1 -->
<svg width="1093pt" height="700pt"
 viewBox="0.00 0.00 1092.98 699.98" xmlns="http://www.w3.org/2000/svg" xmlns:xlink="http://www.w3.org/1999/xlink">
<g id="graph0" class="graph" transform="scale(1 1) rotate(0) translate(7.992 691.992)">
<title>G</title>
<polygon fill="#ffffff" stroke="transparent" points="-7.992,7.992 -7.992,-691.992 1084.992,-691.992 1084.992,7.992 -7.992,7.992"/>
<!-- index -->
<g id="node1" class="node">
<title>index</title>
<ellipse fill="none" stroke="#00009a" cx="554" cy="-666" rx="33.0903" ry="18"/>
<text text-anchor="middle" x="554" y="-662.8493" font-family="Arial" font-size="14.00" fill="#00009a">index</text>
</g>
<!-- lib/code_module -->
<g id="node2" class="node">
<title>lib/code_module</title>
<ellipse fill="none" stroke="#00009a" cx="554" cy="-594" rx="79.2814" ry="18"/>
<text text-anchor="middle" x="554" y="-590.8493" font-family="Arial" font-size="14.00" fill="#00009a">lib/code_module</text>
</g>
<!-- index&#45;&gt;lib/code_module -->
<g id="edge1" class="edge">
<title>index&#45;&gt;lib/code_module</title>
<path fill="none" stroke="#757575" d="M554,-647.8314C554,-640.131 554,-630.9743 554,-622.4166"/>
<polygon fill="#757575" stroke="#757575" points="557.5001,-622.4132 554,-612.4133 550.5001,-622.4133 557.5001,-622.4132"/>
</g>
<!-- lib/matchers -->
<g id="node3" class="node">
<title>lib/matchers</title>
<ellipse fill="none" stroke="#00009a" cx="269" cy="-594" rx="61.6246" ry="18"/>
<text text-anchor="middle" x="269" y="-590.8493" font-family="Arial" font-size="14.00" fill="#00009a">lib/matchers</text>
</g>
<!-- index&#45;&gt;lib/matchers -->
<g id="edge2" class="edge">
<title>index&#45;&gt;lib/matchers</title>
<path fill="none" stroke="#757575" d="M523.7698,-658.3629C476.7778,-646.4912 385.426,-623.4129 325.8428,-608.3603"/>
<polygon fill="#757575" stroke="#757575" points="326.3883,-604.8882 315.8356,-605.8322 324.6737,-611.675 326.3883,-604.8882"/>
</g>
<!-- lib/modular_parsing -->
<g id="node4" class="node">
<title>lib/modular_parsing</title>
<ellipse fill="none" stroke="#00009a" cx="719" cy="-522" rx="93" ry="18"/>
<text text-anchor="middle" x="719" y="-518.8493" font-family="Arial" font-size="14.00" fill="#00009a">lib/modular_parsing</text>
</g>
<!-- index&#45;&gt;lib/modular_parsing -->
<g id="edge3" class="edge">
<title>index&#45;&gt;lib/modular_parsing</title>
<path fill="none" stroke="#757575" d="M578.5213,-653.6606C596.9804,-643.7518 622.3705,-628.761 642,-612 664.2402,-593.0098 685.5339,-567.3429 700.0689,-548.2785"/>
<polygon fill="#757575" stroke="#757575" points="703.0533,-550.1324 706.2506,-540.0315 697.4522,-545.9339 703.0533,-550.1324"/>
</g>
<!-- lib/code_module&#45;&gt;lib/modular_parsing -->
<g id="edge7" class="edge">
<title>lib/code_module&#45;&gt;lib/modular_parsing</title>
<path fill="none" stroke="#757575" d="M590.6188,-578.0209C614.5487,-567.5787 646.0299,-553.8415 671.8287,-542.5839"/>
<polygon fill="#757575" stroke="#757575" points="673.2863,-545.7666 681.0518,-538.5592 670.4866,-539.3508 673.2863,-545.7666"/>
</g>
<!-- lib/code_module_errors -->
<g id="node5" class="node">
<title>lib/code_module_errors</title>
<ellipse fill="none" stroke="#00009a" cx="232" cy="-306" rx="109.4734" ry="18"/>
<text text-anchor="middle" x="232" y="-302.8493" font-family="Arial" font-size="14.00" fill="#00009a">lib/code_module_errors</text>
</g>
<!-- lib/code_module&#45;&gt;lib/code_module_errors -->
<g id="edge4" class="edge">
<title>lib/code_module&#45;&gt;lib/code_module_errors</title>
<path fill="none" stroke="#757575" d="M501.5543,-580.4445C445.0683,-563.2703 356.166,-528.3812 303,-468 269.3734,-429.8099 286.8318,-405.9631 265,-360 260.5917,-350.7192 255.0006,-341.013 249.679,-332.4308"/>
<polygon fill="#757575" stroke="#757575" points="252.6112,-330.5192 244.2917,-323.9589 246.7043,-334.2754 252.6112,-330.5192"/>
</g>
<!-- lib/code_module_types -->
<g id="node6" class="node">
<title>lib/code_module_types</title>
<ellipse fill="none" stroke="#00009a" cx="419" cy="-450" rx="107.3047" ry="18"/>
<text text-anchor="middle" x="419" y="-446.8493" font-family="Arial" font-size="14.00" fill="#00009a">lib/code_module_types</text>
</g>
<!-- lib/code_module&#45;&gt;lib/code_module_types -->
<g id="edge5" class="edge">
<title>lib/code_module&#45;&gt;lib/code_module_types</title>
<path fill="none" stroke="#757575" d="M537.4464,-576.3428C513.6617,-550.9724 469.7004,-504.0804 442.5411,-475.1105"/>
<polygon fill="#757575" stroke="#757575" points="445.0819,-472.7032 435.6891,-467.8017 439.9751,-477.4909 445.0819,-472.7032"/>
</g>
<!-- lib/error_report -->
<g id="node7" class="node">
<title>lib/error_report</title>
<ellipse fill="none" stroke="#00009a" cx="672" cy="-234" rx="72.6259" ry="18"/>
<text text-anchor="middle" x="672" y="-230.8493" font-family="Arial" font-size="14.00" fill="#00009a">lib/error_report</text>
</g>
<!-- lib/code_module&#45;&gt;lib/error_report -->
<g id="edge6" class="edge">
<title>lib/code_module&#45;&gt;lib/error_report</title>
<path fill="none" stroke="#757575" d="M551.6636,-575.8557C544.5241,-517.5252 525.2852,-335.8325 556,-288 567.7607,-269.685 587.5119,-257.4792 607.4141,-249.3893"/>
<polygon fill="#757575" stroke="#757575" points="608.7179,-252.6384 616.8501,-245.8474 606.2579,-246.0848 608.7179,-252.6384"/>
</g>
<!-- lib/require_safe -->
<g id="node8" class="node">
<title>lib/require_safe</title>
<ellipse fill="none" stroke="#00009a" cx="780" cy="-378" rx="75.3898" ry="18"/>
<text text-anchor="middle" x="780" y="-374.8493" font-family="Arial" font-size="14.00" fill="#00009a">lib/require_safe</text>
</g>
<!-- lib/code_module&#45;&gt;lib/require_safe -->
<g id="edge8" class="edge">
<title>lib/code_module&#45;&gt;lib/require_safe</title>
<path fill="none" stroke="#757575" d="M558.9012,-575.9904C569.5,-538.2344 595.3435,-452.5796 617,-432 631.7421,-417.9909 677.0697,-403.5759 716.1938,-393.1669"/>
<polygon fill="#757575" stroke="#757575" points="717.1937,-396.5232 725.9845,-390.6095 715.4246,-389.7505 717.1937,-396.5232"/>
</g>
<!-- lib/matchers_helpers -->
<g id="node13" class="node">
<title>lib/matchers_helpers</title>
<ellipse fill="none" stroke="#00009a" cx="142" cy="-522" rx="97.9138" ry="18"/>
<text text-anchor="middle" x="142" y="-518.8493" font-family="Arial" font-size="14.00" fill="#00009a">lib/matchers_helpers</text>
</g>
<!-- lib/matchers&#45;&gt;lib/matchers_helpers -->
<g id="edge13" class="edge">
<title>lib/matchers&#45;&gt;lib/matchers_helpers</title>
<path fill="none" stroke="#757575" d="M240.4987,-577.8418C223.0738,-567.9631 200.5355,-555.1855 181.4167,-544.3465"/>
<polygon fill="#757575" stroke="#757575" points="183.0497,-541.2489 172.6243,-539.3618 179.5973,-547.3384 183.0497,-541.2489"/>
</g>
<!-- lib/test_engine -->
<g id="node12" class="node">
<title>lib/test_engine</title>
<ellipse fill="none" stroke="#00009a" cx="631" cy="-162" rx="71.5739" ry="18"/>
<text text-anchor="middle" x="631" y="-158.8493" font-family="Arial" font-size="14.00" fill="#00009a">lib/test_engine</text>
</g>
<!-- lib/modular_parsing&#45;&gt;lib/test_engine -->
<g id="edge21" class="edge">
<title>lib/modular_parsing&#45;&gt;lib/test_engine</title>
<path fill="none" stroke="#757575" d="M804.958,-514.9523C882.736,-507.1413 990.2535,-492.3251 1025,-468 1062.8444,-441.5062 1077,-424.1966 1077,-378 1077,-378 1077,-378 1077,-306 1077,-229.1556 834.1999,-187.3148 706.8907,-170.6577"/>
<polygon fill="#757575" stroke="#757575" points="707.1739,-167.1654 696.8088,-169.3596 706.28,-174.1081 707.1739,-167.1654"/>
</g>
<!-- lib/modular_helpers -->
<g id="node16" class="node">
<title>lib/modular_helpers</title>
<ellipse fill="none" stroke="#00009a" cx="719" cy="-450" rx="93" ry="18"/>
<text text-anchor="middle" x="719" y="-446.8493" font-family="Arial" font-size="14.00" fill="#00009a">lib/modular_helpers</text>
</g>
<!-- lib/modular_parsing&#45;&gt;lib/modular_helpers -->
<g id="edge19" class="edge">
<title>lib/modular_parsing&#45;&gt;lib/modular_helpers</title>
<path fill="none" stroke="#757575" d="M719,-503.8314C719,-496.131 719,-486.9743 719,-478.4166"/>
<polygon fill="#757575" stroke="#757575" points="722.5001,-478.4132 719,-468.4133 715.5001,-478.4133 722.5001,-478.4132"/>
</g>
<!-- lib/read_folder_files -->
<g id="node17" class="node">
<title>lib/read_folder_files</title>
<ellipse fill="none" stroke="#00009a" cx="924" cy="-450" rx="92.4602" ry="18"/>
<text text-anchor="middle" x="924" y="-446.8493" font-family="Arial" font-size="14.00" fill="#00009a">lib/read_folder_files</text>
</g>
<!-- lib/modular_parsing&#45;&gt;lib/read_folder_files -->
<g id="edge20" class="edge">
<title>lib/modular_parsing&#45;&gt;lib/read_folder_files</title>
<path fill="none" stroke="#757575" d="M763.9881,-506.1993C795.0971,-495.2732 836.6562,-480.6768 869.6235,-469.0981"/>
<polygon fill="#757575" stroke="#757575" points="870.8417,-472.3799 879.1168,-465.7638 868.522,-465.7754 870.8417,-472.3799"/>
</g>
<!-- lib/parse_method_name -->
<g id="node9" class="node">
<title>lib/parse_method_name</title>
<ellipse fill="none" stroke="#009a00" cx="232" cy="-18" rx="111.7273" ry="18"/>
<text text-anchor="middle" x="232" y="-14.8493" font-family="Arial" font-size="14.00" fill="#009a00">lib/parse_method_name</text>
</g>
<!-- lib/code_module_errors&#45;&gt;lib/parse_method_name -->
<g id="edge9" class="edge">
<title>lib/code_module_errors&#45;&gt;lib/parse_method_name</title>
<path fill="none" stroke="#757575" d="M232,-287.9843C232,-239.2939 232,-104.7961 232,-46.0573"/>
<polygon fill="#757575" stroke="#757575" points="235.5001,-46.0088 232,-36.0089 228.5001,-46.0089 235.5001,-46.0088"/>
</g>
<!-- lib/construct -->
<g id="node10" class="node">
<title>lib/construct</title>
<ellipse fill="none" stroke="#009a00" cx="626" cy="-378" rx="61.0847" ry="18"/>
<text text-anchor="middle" x="626" y="-374.8493" font-family="Arial" font-size="14.00" fill="#009a00">lib/construct</text>
</g>
<!-- lib/code_module_types&#45;&gt;lib/construct -->
<g id="edge10" class="edge">
<title>lib/code_module_types&#45;&gt;lib/construct</title>
<path fill="none" stroke="#757575" d="M465.7129,-433.752C498.8146,-422.2384 543.1403,-406.8208 576.7884,-395.1171"/>
<polygon fill="#757575" stroke="#757575" points="578.1246,-398.3581 586.4197,-391.7671 575.8249,-391.7466 578.1246,-398.3581"/>
</g>
<!-- lib/method_context -->
<g id="node11" class="node">
<title>lib/method_context</title>
<ellipse fill="none" stroke="#00009a" cx="419" cy="-378" rx="89.7246" ry="18"/>
<text text-anchor="middle" x="419" y="-374.8493" font-family="Arial" font-size="14.00" fill="#00009a">lib/method_context</text>
</g>
<!-- lib/code_module_types&#45;&gt;lib/method_context -->
<g id="edge11" class="edge">
<title>lib/code_module_types&#45;&gt;lib/method_context</title>
<path fill="none" stroke="#757575" d="M419,-431.8314C419,-424.131 419,-414.9743 419,-406.4166"/>
<polygon fill="#757575" stroke="#757575" points="422.5001,-406.4132 419,-396.4133 415.5001,-406.4133 422.5001,-406.4132"/>
</g>
<!-- lib/error_report&#45;&gt;lib/test_engine -->
<g id="edge12" class="edge">
<title>lib/error_report&#45;&gt;lib/test_engine</title>
<path fill="none" stroke="#757575" d="M661.654,-215.8314C657.0058,-207.6688 651.426,-197.87 646.3082,-188.8827"/>
<polygon fill="#757575" stroke="#757575" points="649.1906,-186.8713 641.2007,-179.9134 643.1077,-190.3352 649.1906,-186.8713"/>
</g>
<!-- lib/require_safe_wrapping -->
<g id="node21" class="node">
<title>lib/require_safe_wrapping</title>
<ellipse fill="none" stroke="#00009a" cx="684" cy="-306" rx="118.8459" ry="18"/>
<text text-anchor="middle" x="684" y="-302.8493" font-family="Arial" font-size="14.00" fill="#00009a">lib/require_safe_wrapping</text>
</g>
<!-- lib/require_safe&#45;&gt;lib/require_safe_wrapping -->
<g id="edge26" class="edge">
<title>lib/require_safe&#45;&gt;lib/require_safe_wrapping</title>
<path fill="none" stroke="#757575" d="M756.7611,-360.5708C744.4455,-351.3341 729.1352,-339.8514 715.7405,-329.8054"/>
<polygon fill="#757575" stroke="#757575" points="717.7919,-326.9689 707.6918,-323.7689 713.5918,-332.5689 717.7919,-326.9689"/>
</g>
<!-- lib/spec_runner -->
<g id="node15" class="node">
<title>lib/spec_runner</title>
<ellipse fill="none" stroke="#00009a" cx="434" cy="-306" rx="75.3898" ry="18"/>
<text text-anchor="middle" x="434" y="-302.8493" font-family="Arial" font-size="14.00" fill="#00009a">lib/spec_runner</text>
</g>
<!-- lib/method_context&#45;&gt;lib/spec_runner -->
<g id="edge16" class="edge">
<title>lib/method_context&#45;&gt;lib/spec_runner</title>
<path fill="none" stroke="#757575" d="M422.7851,-359.8314C424.3894,-352.131 426.297,-342.9743 428.0799,-334.4166"/>
<polygon fill="#757575" stroke="#757575" points="431.5507,-334.9169 430.1639,-324.4133 424.6979,-333.4892 431.5507,-334.9169"/>
</g>
<!-- lib/perform_test -->
<g id="node19" class="node">
<title>lib/perform_test</title>
<ellipse fill="none" stroke="#00009a" cx="379" cy="-90" rx="75.9112" ry="18"/>
<text text-anchor="middle" x="379" y="-86.8493" font-family="Arial" font-size="14.00" fill="#00009a">lib/perform_test</text>
</g>
<!-- lib/test_engine&#45;&gt;lib/perform_test -->
<g id="edge32" class="edge">
<title>lib/test_engine&#45;&gt;lib/perform_test</title>
<path fill="none" stroke="#757575" d="M583.6007,-148.4574C542.1126,-136.6036 481.6944,-119.3413 437.2651,-106.6472"/>
<polygon fill="#757575" stroke="#757575" points="438.0507,-103.2316 427.4739,-103.8497 436.1276,-109.9623 438.0507,-103.2316"/>
</g>
<!-- lib/tape_runner -->
<g id="node24" class="node">
<title>lib/tape_runner</title>
<ellipse fill="none" stroke="#00009a" cx="734" cy="-90" rx="73.7609" ry="18"/>
<text text-anchor="middle" x="734" y="-86.8493" font-family="Arial" font-size="14.00" fill="#00009a">lib/tape_runner</text>
</g>
<!-- lib/test_engine&#45;&gt;lib/tape_runner -->
<g id="edge33" class="edge">
<title>lib/test_engine&#45;&gt;lib/tape_runner</title>
<path fill="none" stroke="#757575" d="M655.4096,-144.937C669.0354,-135.4122 686.1982,-123.4149 701.0064,-113.0635"/>
<polygon fill="#757575" stroke="#757575" points="703.2179,-115.788 709.4087,-107.19 699.2074,-110.0507 703.2179,-115.788"/>
</g>
<!-- lib/test_outputs -->
<g id="node26" class="node">
<title>lib/test_outputs</title>
<ellipse fill="none" stroke="#009a00" cx="568" cy="-90" rx="74.3008" ry="18"/>
<text text-anchor="middle" x="568" y="-86.8493" font-family="Arial" font-size="14.00" fill="#009a00">lib/test_outputs</text>
</g>
<!-- lib/test_engine&#45;&gt;lib/test_outputs -->
<g id="edge34" class="edge">
<title>lib/test_engine&#45;&gt;lib/test_outputs</title>
<path fill="none" stroke="#757575" d="M615.427,-144.2022C607.8548,-135.5483 598.6162,-124.99 590.3115,-115.4988"/>
<polygon fill="#757575" stroke="#757575" points="592.8313,-113.0636 583.6122,-107.8425 587.5633,-117.6731 592.8313,-113.0636"/>
</g>
<!-- lib/matchers_helpers&#45;&gt;lib/parse_method_name -->
<g id="edge15" class="edge">
<title>lib/matchers_helpers&#45;&gt;lib/parse_method_name</title>
<path fill="none" stroke="#757575" d="M106.1674,-505.1687C64.1011,-482.6351 0,-438.3904 0,-378 0,-378 0,-378 0,-162 0,-89.8193 82.071,-52.5602 148.5858,-34.2161"/>
<polygon fill="#757575" stroke="#757575" points="149.5072,-37.5928 158.275,-31.6449 147.7118,-30.8269 149.5072,-37.5928"/>
</g>
<!-- lib/object_report -->
<g id="node14" class="node">
<title>lib/object_report</title>
<ellipse fill="none" stroke="#00009a" cx="142" cy="-450" rx="77.6255" ry="18"/>
<text text-anchor="middle" x="142" y="-446.8493" font-family="Arial" font-size="14.00" fill="#00009a">lib/object_report</text>
</g>
<!-- lib/matchers_helpers&#45;&gt;lib/object_report -->
<g id="edge14" class="edge">
<title>lib/matchers_helpers&#45;&gt;lib/object_report</title>
<path fill="none" stroke="#757575" d="M142,-503.8314C142,-496.131 142,-486.9743 142,-478.4166"/>
<polygon fill="#757575" stroke="#757575" points="145.5001,-478.4132 142,-468.4133 138.5001,-478.4133 145.5001,-478.4132"/>
</g>
<!-- lib/object_report_helpers -->
<g id="node18" class="node">
<title>lib/object_report_helpers</title>
<ellipse fill="none" stroke="#009a00" cx="142" cy="-378" rx="113.9139" ry="18"/>
<text text-anchor="middle" x="142" y="-374.8493" font-family="Arial" font-size="14.00" fill="#009a00">lib/object_report_helpers</text>
</g>
<!-- lib/object_report&#45;&gt;lib/object_report_helpers -->
<g id="edge22" class="edge">
<title>lib/object_report&#45;&gt;lib/object_report_helpers</title>
<path fill="none" stroke="#757575" d="M142,-431.8314C142,-424.131 142,-414.9743 142,-406.4166"/>
<polygon fill="#757575" stroke="#757575" points="145.5001,-406.4132 142,-396.4133 138.5001,-406.4133 145.5001,-406.4132"/>
</g>
<!-- lib/spec_runner&#45;&gt;lib/test_engine -->
<g id="edge30" class="edge">
<title>lib/spec_runner&#45;&gt;lib/test_engine</title>
<path fill="none" stroke="#757575" d="M471.0295,-290.2821C491.8772,-280.6347 517.8836,-267.2259 539,-252 565.2832,-233.0486 591.3115,-206.6873 608.9393,-187.3927"/>
<polygon fill="#757575" stroke="#757575" points="611.6339,-189.6308 615.7258,-179.858 606.4326,-184.946 611.6339,-189.6308"/>
</g>
<!-- lib/sequence_syntax -->
<g id="node22" class="node">
<title>lib/sequence_syntax</title>
<ellipse fill="none" stroke="#00009a" cx="434" cy="-234" rx="96.3034" ry="18"/>
<text text-anchor="middle" x="434" y="-230.8493" font-family="Arial" font-size="14.00" fill="#00009a">lib/sequence_syntax</text>
</g>
<!-- lib/spec_runner&#45;&gt;lib/sequence_syntax -->
<g id="edge29" class="edge">
<title>lib/spec_runner&#45;&gt;lib/sequence_syntax</title>
<path fill="none" stroke="#757575" d="M434,-287.8314C434,-280.131 434,-270.9743 434,-262.4166"/>
<polygon fill="#757575" stroke="#757575" points="437.5001,-262.4132 434,-252.4133 430.5001,-262.4133 437.5001,-262.4132"/>
</g>
<!-- lib/modular_helpers&#45;&gt;lib/require_safe -->
<g id="edge18" class="edge">
<title>lib/modular_helpers&#45;&gt;lib/require_safe</title>
<path fill="none" stroke="#757575" d="M734.0787,-432.2022C741.4105,-423.5483 750.3557,-412.99 758.3968,-403.4988"/>
<polygon fill="#757575" stroke="#757575" points="761.0896,-405.7349 764.8834,-395.8425 755.7487,-401.2099 761.0896,-405.7349"/>
</g>
<!-- lib/modular_helpers&#45;&gt;lib/construct -->
<g id="edge17" class="edge">
<title>lib/modular_helpers&#45;&gt;lib/construct</title>
<path fill="none" stroke="#757575" d="M696.0112,-432.2022C683.9213,-422.8423 668.9539,-411.2546 655.9653,-401.1989"/>
<polygon fill="#757575" stroke="#757575" points="657.8157,-398.2052 647.7658,-394.851 653.5305,-403.7403 657.8157,-398.2052"/>
</g>
<!-- lib/read_folder_wrapping -->
<g id="node20" class="node">
<title>lib/read_folder_wrapping</title>
<ellipse fill="none" stroke="#00009a" cx="935" cy="-306" rx="113.9231" ry="18"/>
<text text-anchor="middle" x="935" y="-302.8493" font-family="Arial" font-size="14.00" fill="#00009a">lib/read_folder_wrapping</text>
</g>
<!-- lib/read_folder_files&#45;&gt;lib/read_folder_wrapping -->
<g id="edge24" class="edge">
<title>lib/read_folder_files&#45;&gt;lib/read_folder_wrapping</title>
<path fill="none" stroke="#757575" d="M925.3932,-431.7623C927.2694,-407.201 930.6269,-363.2474 932.8341,-334.3541"/>
<polygon fill="#757575" stroke="#757575" points="936.3462,-334.3272 933.6182,-324.0896 929.3666,-333.794 936.3462,-334.3272"/>
</g>
<!-- lib/perform_test&#45;&gt;lib/parse_method_name -->
<g id="edge23" class="edge">
<title>lib/perform_test&#45;&gt;lib/parse_method_name</title>
<path fill="none" stroke="#757575" d="M345.6434,-73.6621C325.112,-63.6059 298.5521,-50.597 276.2724,-39.6845"/>
<polygon fill="#757575" stroke="#757575" points="277.5363,-36.4063 267.0161,-35.1507 274.4572,-42.6927 277.5363,-36.4063"/>
</g>
<!-- lib/read_folder_wrapping&#45;&gt;lib/error_report -->
<g id="edge25" class="edge">
<title>lib/read_folder_wrapping&#45;&gt;lib/error_report</title>
<path fill="none" stroke="#757575" d="M877.9329,-290.3771C834.3926,-278.4573 774.6193,-262.0935 730.6838,-250.0655"/>
<polygon fill="#757575" stroke="#757575" points="731.5702,-246.6795 721.0009,-247.4147 729.7219,-253.431 731.5702,-246.6795"/>
</g>
<!-- lib/require_safe_wrapping&#45;&gt;lib/error_report -->
<g id="edge27" class="edge">
<title>lib/require_safe_wrapping&#45;&gt;lib/error_report</title>
<path fill="none" stroke="#757575" d="M680.9719,-287.8314C679.6885,-280.131 678.1624,-270.9743 676.7361,-262.4166"/>
<polygon fill="#757575" stroke="#757575" points="680.1653,-261.7018 675.0689,-252.4133 673.2606,-262.8526 680.1653,-261.7018"/>
</g>
<!-- lib/spec_data -->
<g id="node23" class="node">
<title>lib/spec_data</title>
<ellipse fill="none" stroke="#009a00" cx="434" cy="-162" rx="66.0937" ry="18"/>
<text text-anchor="middle" x="434" y="-158.8493" font-family="Arial" font-size="14.00" fill="#009a00">lib/spec_data</text>
</g>
<!-- lib/sequence_syntax&#45;&gt;lib/spec_data -->
<g id="edge28" class="edge">
<title>lib/sequence_syntax&#45;&gt;lib/spec_data</title>
<path fill="none" stroke="#757575" d="M434,-215.8314C434,-208.131 434,-198.9743 434,-190.4166"/>
<polygon fill="#757575" stroke="#757575" points="437.5001,-190.4132 434,-180.4133 430.5001,-190.4133 437.5001,-190.4132"/>
</g>
<!-- lib/tape_spec -->
<g id="node25" class="node">
<title>lib/tape_spec</title>
<ellipse fill="none" stroke="#009a00" cx="734" cy="-18" rx="66.0937" ry="18"/>
<text text-anchor="middle" x="734" y="-14.8493" font-family="Arial" font-size="14.00" fill="#009a00">lib/tape_spec</text>
</g>
<!-- lib/tape_runner&#45;&gt;lib/tape_spec -->
<g id="edge31" class="edge">
<title>lib/tape_runner&#45;&gt;lib/tape_spec</title>
<path fill="none" stroke="#757575" d="M734,-71.8314C734,-64.131 734,-54.9743 734,-46.4166"/>
<polygon fill="#757575" stroke="#757575" points="737.5001,-46.4132 734,-36.4133 730.5001,-46.4133 737.5001,-46.4132"/>
</g>
</g>
</svg>
